<svg width="648" height="586" viewBox="0 0 648 586" fill="none" xmlns="http://www.w3.org/2000/svg">
<rect width="648" height="586" fill="#E5E5E5"/>
<rect width="648" height="586" fill="#8FD3E3"/>
<path d="M56.744 350.44H61.16V360.936H70.376V365.928H61.16V381.992C61.16 383.229 61.288 384.275 61.544 385.128C61.8427 385.981 62.2267 386.664 62.696 387.176C63.1653 387.688 63.72 388.072 64.36 388.328C65.0427 388.541 65.7467 388.648 66.472 388.648C67.5387 388.648 68.5413 388.477 69.48 388.136C70.4187 387.795 71.3147 387.389 72.168 386.92L73.768 391.528C72.9147 392.04 71.7627 392.531 70.312 393C68.8613 393.512 67.3467 393.768 65.768 393.768C62.568 393.768 60.0293 392.723 58.152 390.632C56.3173 388.541 55.4 385.512 55.4 381.544V365.928H49.64V360.936H55.528L56.744 350.44ZM85.3175 365.032C86.5122 363.283 88.0055 361.832 89.7975 360.68C91.6322 359.528 93.8082 358.952 96.3255 358.952C100.08 358.952 102.875 360.083 104.71 362.344C106.587 364.605 107.526 367.592 107.526 371.304V393H101.766V371.944C101.766 369.512 101.211 367.592 100.102 366.184C99.0348 364.733 97.4775 364.008 95.4295 364.008C94.4482 364.008 93.4668 364.2 92.4855 364.584C91.5468 364.925 90.6508 365.416 89.7975 366.056C88.9442 366.696 88.1335 367.443 87.3655 368.296C86.5975 369.149 85.9148 370.045 85.3175 370.984V393H79.5575V345.64H85.3175V365.032ZM121.081 378.728C121.465 381.843 122.553 384.275 124.345 386.024C126.137 387.773 128.505 388.648 131.449 388.648C133.369 388.648 135.097 388.456 136.633 388.072C138.169 387.645 139.641 387.112 141.049 386.472L142.393 391.4C140.857 392.125 139.129 392.701 137.209 393.128C135.289 393.555 133.134 393.768 130.745 393.768C128.355 393.768 126.201 393.384 124.281 392.616C122.361 391.805 120.718 390.675 119.353 389.224C118.03 387.731 117.006 385.917 116.281 383.784C115.555 381.608 115.193 379.133 115.193 376.36C115.193 373.885 115.555 371.581 116.281 369.448C117.006 367.315 118.03 365.48 119.353 363.944C120.675 362.365 122.254 361.149 124.089 360.296C125.923 359.4 127.971 358.952 130.233 358.952C132.622 358.952 134.713 359.357 136.505 360.168C138.297 360.979 139.79 362.088 140.985 363.496C142.179 364.904 143.075 366.547 143.673 368.424C144.27 370.301 144.569 372.285 144.569 374.376C144.569 375.869 144.505 377.32 144.377 378.728H121.081ZM130.105 363.944C127.587 363.944 125.518 364.797 123.897 366.504C122.318 368.211 121.358 370.728 121.017 374.056H139.257C139.257 370.813 138.446 368.317 136.825 366.568C135.203 364.819 132.963 363.944 130.105 363.944ZM171.433 345.64H177.193V363.176C177.619 362.707 178.153 362.216 178.793 361.704C179.433 361.192 180.137 360.744 180.905 360.36C181.715 359.933 182.611 359.592 183.593 359.336C184.574 359.08 185.641 358.952 186.793 358.952C188.713 358.952 190.547 359.336 192.297 360.104C194.089 360.872 195.646 361.981 196.969 363.432C198.334 364.883 199.422 366.675 200.233 368.808C201.043 370.941 201.449 373.352 201.449 376.04C201.449 378.685 201.022 381.096 200.169 383.272C199.315 385.448 198.185 387.325 196.777 388.904C195.369 390.44 193.747 391.635 191.913 392.488C190.121 393.341 188.286 393.768 186.409 393.768C184.489 393.768 182.675 393.427 180.969 392.744C179.305 392.061 177.918 391.229 176.809 390.248V393H171.433V345.64ZM195.561 376.232C195.561 374.312 195.283 372.605 194.729 371.112C194.217 369.576 193.491 368.275 192.553 367.208C191.657 366.141 190.59 365.331 189.353 364.776C188.158 364.221 186.878 363.944 185.513 363.944C183.678 363.944 182.014 364.413 180.521 365.352C179.07 366.248 177.961 367.229 177.193 368.296V386.088C178.174 386.856 179.326 387.475 180.649 387.944C181.971 388.413 183.379 388.648 184.873 388.648C186.409 388.648 187.838 388.349 189.161 387.752C190.483 387.155 191.614 386.323 192.553 385.256C193.491 384.147 194.217 382.845 194.729 381.352C195.283 379.816 195.561 378.109 195.561 376.232ZM234.137 376.36C234.137 374.696 233.859 373.117 233.305 371.624C232.793 370.131 232.046 368.829 231.065 367.72C230.126 366.611 228.995 365.736 227.673 365.096C226.393 364.413 224.985 364.072 223.449 364.072C220.078 364.072 217.454 365.181 215.577 367.4C213.699 369.619 212.76 372.563 212.76 376.232C212.76 377.896 213.017 379.496 213.529 381.032C214.083 382.525 214.83 383.848 215.769 385C216.75 386.109 217.881 387.005 219.161 387.688C220.483 388.328 221.913 388.648 223.449 388.648C225.113 388.648 226.606 388.349 227.929 387.752C229.251 387.155 230.361 386.323 231.257 385.256C232.195 384.147 232.899 382.845 233.369 381.352C233.881 379.859 234.137 378.195 234.137 376.36ZM206.873 376.36C206.873 373.672 207.299 371.261 208.153 369.128C209.006 366.952 210.158 365.117 211.609 363.624C213.102 362.131 214.851 360.979 216.857 360.168C218.905 359.357 221.102 358.952 223.449 358.952C225.753 358.952 227.907 359.357 229.913 360.168C231.961 360.979 233.731 362.131 235.225 363.624C236.718 365.117 237.891 366.931 238.745 369.064C239.598 371.197 240.025 373.587 240.025 376.232C240.025 378.877 239.598 381.288 238.745 383.464C237.934 385.597 236.782 387.432 235.289 388.968C233.795 390.504 232.025 391.699 229.977 392.552C227.971 393.363 225.795 393.768 223.449 393.768C221.059 393.768 218.841 393.341 216.793 392.488C214.787 391.635 213.038 390.44 211.545 388.904C210.094 387.368 208.942 385.533 208.089 383.4C207.278 381.267 206.873 378.92 206.873 376.36ZM272.387 376.36C272.387 374.696 272.109 373.117 271.555 371.624C271.043 370.131 270.296 368.829 269.315 367.72C268.376 366.611 267.245 365.736 265.923 365.096C264.643 364.413 263.235 364.072 261.699 364.072C258.328 364.072 255.704 365.181 253.827 367.4C251.949 369.619 251.01 372.563 251.01 376.232C251.01 377.896 251.267 379.496 251.779 381.032C252.333 382.525 253.08 383.848 254.019 385C255 386.109 256.131 387.005 257.411 387.688C258.733 388.328 260.163 388.648 261.699 388.648C263.363 388.648 264.856 388.349 266.179 387.752C267.501 387.155 268.611 386.323 269.507 385.256C270.445 384.147 271.149 382.845 271.619 381.352C272.131 379.859 272.387 378.195 272.387 376.36ZM245.123 376.36C245.123 373.672 245.549 371.261 246.403 369.128C247.256 366.952 248.408 365.117 249.859 363.624C251.352 362.131 253.101 360.979 255.107 360.168C257.155 359.357 259.352 358.952 261.699 358.952C264.003 358.952 266.157 359.357 268.163 360.168C270.211 360.979 271.981 362.131 273.475 363.624C274.968 365.117 276.141 366.931 276.995 369.064C277.848 371.197 278.275 373.587 278.275 376.232C278.275 378.877 277.848 381.288 276.995 383.464C276.184 385.597 275.032 387.432 273.539 388.968C272.045 390.504 270.275 391.699 268.227 392.552C266.221 393.363 264.045 393.768 261.699 393.768C259.309 393.768 257.091 393.341 255.043 392.488C253.037 391.635 251.288 390.44 249.795 388.904C248.344 387.368 247.192 385.533 246.339 383.4C245.528 381.267 245.123 378.92 245.123 376.36ZM285.933 345.64H291.693V372.712L306.733 359.08L310.061 362.728L297.197 374.12L312.877 389.8L308.909 393.64L291.693 375.912V393H285.933V345.64ZM78.824 452.36C78.824 450.696 78.5467 449.117 77.992 447.624C77.48 446.131 76.7333 444.829 75.752 443.72C74.8133 442.611 73.6827 441.736 72.36 441.096C71.08 440.413 69.672 440.072 68.136 440.072C64.7653 440.072 62.1413 441.181 60.264 443.4C58.3867 445.619 57.448 448.563 57.448 452.232C57.448 453.896 57.704 455.496 58.216 457.032C58.7707 458.525 59.5173 459.848 60.456 461C61.4373 462.109 62.568 463.005 63.848 463.688C65.1707 464.328 66.6 464.648 68.136 464.648C69.8 464.648 71.2933 464.349 72.616 463.752C73.9387 463.155 75.048 462.323 75.944 461.256C76.8827 460.147 77.5867 458.845 78.056 457.352C78.568 455.859 78.824 454.195 78.824 452.36ZM51.56 452.36C51.56 449.672 51.9867 447.261 52.84 445.128C53.6933 442.952 54.8453 441.117 56.296 439.624C57.7893 438.131 59.5387 436.979 61.544 436.168C63.592 435.357 65.7893 434.952 68.136 434.952C70.44 434.952 72.5947 435.357 74.6 436.168C76.648 436.979 78.4187 438.131 79.912 439.624C81.4053 441.117 82.5787 442.931 83.432 445.064C84.2853 447.197 84.712 449.587 84.712 452.232C84.712 454.877 84.2853 457.288 83.432 459.464C82.6213 461.597 81.4693 463.432 79.976 464.968C78.4827 466.504 76.712 467.699 74.664 468.552C72.6587 469.363 70.4827 469.768 68.136 469.768C65.7467 469.768 63.528 469.341 61.48 468.488C59.4747 467.635 57.7253 466.44 56.232 464.904C54.7813 463.368 53.6293 461.533 52.776 459.4C51.9653 457.267 51.56 454.92 51.56 452.36ZM110.994 427.848C110.098 427.379 109.138 426.952 108.114 426.568C107.09 426.184 105.959 425.992 104.722 425.992C102.93 425.992 101.479 426.568 100.37 427.72C99.3033 428.829 98.77 430.472 98.77 432.648V436.936H108.626V441.928H98.77V469H93.01V441.928H87.89V436.936H93.01V433.032C93.01 431.155 93.2873 429.469 93.842 427.976C94.3967 426.483 95.1647 425.203 96.146 424.136C97.1273 423.069 98.322 422.259 99.73 421.704C101.138 421.149 102.674 420.872 104.338 420.872C106.13 420.872 107.666 421.085 108.946 421.512C110.269 421.896 111.527 422.387 112.722 422.984L110.994 427.848ZM59.688 517.288C60.8827 515.496 62.376 514.003 64.168 512.808C66.0027 511.571 68.1147 510.952 70.504 510.952C73.1493 510.952 75.304 511.592 76.968 512.872C78.632 514.109 79.8267 515.816 80.552 517.992C81.8747 516.029 83.432 514.365 85.224 513C87.0587 511.635 89.32 510.952 92.008 510.952C93.8 510.952 95.3573 511.251 96.68 511.848C98.0453 512.445 99.176 513.299 100.072 514.408C100.968 515.475 101.629 516.776 102.056 518.312C102.525 519.805 102.76 521.469 102.76 523.304V545H97V523.752C97 521.448 96.4667 519.592 95.4 518.184C94.3333 516.733 92.8613 516.008 90.984 516.008C90.0027 516.008 89.064 516.2 88.168 516.584C87.272 516.968 86.4187 517.501 85.608 518.184C84.7973 518.824 84.0293 519.592 83.304 520.488C82.5787 521.341 81.9173 522.237 81.32 523.176V545H75.56V523.752C75.56 521.448 75.0267 519.592 73.96 518.184C72.8933 516.733 71.4213 516.008 69.544 516.008C68.6053 516.008 67.688 516.2 66.792 516.584C65.896 516.925 65.0213 517.416 64.168 518.056C63.3573 518.696 62.5893 519.443 61.864 520.296C61.1387 521.149 60.4773 522.045 59.88 522.984V545H54.12V511.72H59.688V517.288ZM118.443 545H112.683V511.72H118.443V545ZM115.562 506.024C114.453 506.024 113.493 505.64 112.683 504.872C111.915 504.061 111.531 503.101 111.531 501.992C111.531 500.755 111.893 499.773 112.619 499.048C113.344 498.323 114.325 497.96 115.562 497.96C116.672 497.96 117.611 498.365 118.379 499.176C119.189 499.944 119.595 500.883 119.595 501.992C119.595 503.229 119.232 504.211 118.507 504.936C117.781 505.661 116.8 506.024 115.562 506.024ZM134.251 517.288C135.445 515.496 136.96 514.003 138.795 512.808C140.672 511.571 142.891 510.952 145.451 510.952C149.205 510.952 152 512.083 153.835 514.344C155.712 516.605 156.651 519.592 156.651 523.304V545H150.891V523.944C150.891 521.512 150.336 519.592 149.227 518.184C148.117 516.733 146.539 516.008 144.491 516.008C143.509 516.008 142.549 516.2 141.611 516.584C140.672 516.925 139.755 517.416 138.859 518.056C138.005 518.696 137.195 519.443 136.427 520.296C135.701 521.149 135.04 522.045 134.443 522.984V545H128.683V511.72H134.251V517.288ZM170.206 530.728C170.59 533.843 171.678 536.275 173.47 538.024C175.262 539.773 177.63 540.648 180.574 540.648C182.494 540.648 184.222 540.456 185.758 540.072C187.294 539.645 188.766 539.112 190.174 538.472L191.518 543.4C189.982 544.125 188.254 544.701 186.334 545.128C184.414 545.555 182.259 545.768 179.87 545.768C177.48 545.768 175.326 545.384 173.406 544.616C171.486 543.805 169.843 542.675 168.478 541.224C167.155 539.731 166.131 537.917 165.406 535.784C164.68 533.608 164.318 531.133 164.318 528.36C164.318 525.885 164.68 523.581 165.406 521.448C166.131 519.315 167.155 517.48 168.478 515.944C169.8 514.365 171.379 513.149 173.214 512.296C175.048 511.4 177.096 510.952 179.358 510.952C181.747 510.952 183.838 511.357 185.63 512.168C187.422 512.979 188.915 514.088 190.11 515.496C191.304 516.904 192.2 518.547 192.798 520.424C193.395 522.301 193.694 524.285 193.694 526.376C193.694 527.869 193.63 529.32 193.502 530.728H170.206ZM179.23 515.944C176.712 515.944 174.643 516.797 173.022 518.504C171.443 520.211 170.483 522.728 170.142 526.056H188.382C188.382 522.813 187.571 520.317 185.95 518.568C184.328 516.819 182.088 515.944 179.23 515.944ZM200.922 537.512C202.031 538.493 203.418 539.283 205.082 539.88C206.789 540.477 208.602 540.776 210.522 540.776C212.911 540.776 214.703 540.392 215.898 539.624C217.135 538.813 217.754 537.789 217.754 536.552C217.754 535.912 217.626 535.315 217.37 534.76C217.157 534.205 216.73 533.672 216.09 533.16C215.493 532.648 214.661 532.157 213.594 531.688C212.527 531.176 211.141 530.621 209.434 530.024C206.277 528.957 203.93 527.699 202.394 526.248C200.858 524.755 200.09 522.707 200.09 520.104C200.09 518.824 200.367 517.629 200.922 516.52C201.519 515.411 202.351 514.451 203.418 513.64C204.527 512.787 205.85 512.125 207.386 511.656C208.965 511.187 210.757 510.952 212.762 510.952C214.938 510.952 216.837 511.187 218.458 511.656C220.122 512.083 221.615 512.637 222.938 513.32L221.338 518.056C220.186 517.373 218.863 516.819 217.37 516.392C215.919 515.965 214.298 515.752 212.506 515.752C210.287 515.752 208.602 516.2 207.45 517.096C206.298 517.992 205.722 518.973 205.722 520.04C205.722 520.552 205.807 521.021 205.978 521.448C206.191 521.875 206.554 522.28 207.066 522.664C207.578 523.048 208.261 523.432 209.114 523.816C209.967 524.2 211.034 524.605 212.314 525.032C214.405 525.757 216.175 526.504 217.626 527.272C219.077 527.997 220.25 528.808 221.146 529.704C222.042 530.6 222.682 531.581 223.066 532.648C223.45 533.672 223.642 534.824 223.642 536.104C223.642 537.597 223.322 538.941 222.682 540.136C222.042 541.331 221.146 542.355 219.994 543.208C218.842 544.019 217.434 544.637 215.77 545.064C214.149 545.533 212.335 545.768 210.33 545.768C207.77 545.768 205.487 545.448 203.482 544.808C201.477 544.168 199.813 543.336 198.49 542.312L200.922 537.512ZM237.068 517.032C238.262 515.283 239.756 513.832 241.548 512.68C243.382 511.528 245.558 510.952 248.076 510.952C251.83 510.952 254.625 512.083 256.46 514.344C258.337 516.605 259.276 519.592 259.276 523.304V545H253.516V523.944C253.516 521.512 252.961 519.592 251.852 518.184C250.785 516.733 249.228 516.008 247.18 516.008C246.198 516.008 245.217 516.2 244.236 516.584C243.297 516.925 242.401 517.416 241.548 518.056C240.694 518.696 239.884 519.443 239.116 520.296C238.348 521.149 237.665 522.045 237.068 522.984V545H231.308V497.64H237.068V517.032Z" fill="white"/>
</svg>
